<svg width="1176" height="365" viewBox="0 0 1176 365" fill="none" xmlns="http://www.w3.org/2000/svg">
<path d="M289.248 332.666L282.294 332.665L278.986 305.74L289.25 305.741L289.248 332.666Z" fill="#9E616A"/>
<path d="M291.022 339.431L268.6 339.431V339.146C268.6 336.822 269.52 334.594 271.156 332.951C272.793 331.308 275.013 330.385 277.327 330.385H277.328L291.022 330.386L291.022 339.431Z" fill="#2F2E41"/>
<path d="M264.292 332.666L257.338 332.665L254.03 305.74L264.293 305.741L264.292 332.666Z" fill="#9E616A"/>
<path d="M266.065 339.431L243.643 339.431V339.146C243.643 336.822 244.563 334.594 246.199 332.951C247.836 331.308 250.056 330.385 252.37 330.385H252.371L266.065 330.386L266.065 339.431Z" fill="#2F2E41"/>
<path d="M183.304 143.996C183.86 144.764 184.576 145.399 185.403 145.858C186.23 146.318 187.147 146.589 188.09 146.654C189.033 146.719 189.978 146.575 190.86 146.234C191.741 145.892 192.538 145.361 193.192 144.677L206.952 150.07L212.256 142.476L192.719 135.133C191.501 134.105 189.951 133.561 188.36 133.604C186.77 133.647 185.25 134.274 184.09 135.367C182.929 136.459 182.208 137.941 182.063 139.532C181.919 141.122 182.36 142.711 183.304 143.996V143.996Z" fill="#9E616A"/>
<path d="M264.204 190.01L246.088 195.942L252.139 324.734L266.121 325.081L273.276 234.255L274.901 324.723L292.189 325.679L298.562 190.01H264.204Z" fill="#2F2E41"/>
<path d="M251.98 114.089L298.476 103.947L303.647 144.137L299.341 163.34L301.066 192.523C301.066 192.523 264.301 210.892 246.088 195.942C246.088 195.942 260.726 157.343 252.241 139.275L251.98 114.089Z" fill="#59906C"/>
<path d="M260.033 119.773L251.98 114.088C251.98 114.088 251.505 113.427 244.794 121.302C238.084 129.177 224.471 141.703 224.471 141.703L201.783 133.162L197.65 148.493L224.018 160.828L261.349 135.801L260.033 119.773Z" fill="#59906C"/>
<path d="M301.074 207.588C301.929 207.183 302.684 206.595 303.288 205.865C303.891 205.135 304.328 204.281 304.567 203.363C304.806 202.445 304.842 201.486 304.672 200.553C304.502 199.62 304.13 198.736 303.582 197.962L311.425 185.397L304.98 178.75L294.153 196.651C292.92 197.661 292.099 199.089 291.845 200.666C291.591 202.242 291.922 203.858 292.775 205.206C293.628 206.554 294.944 207.541 296.473 207.98C298.003 208.419 299.64 208.28 301.074 207.588Z" fill="#9E616A"/>
<path d="M291.224 111.865L298.476 103.947C298.476 103.947 306.557 101.123 313.159 115.719C319.76 130.316 327.134 159.924 327.134 159.924L309.894 193.26L296.505 187.254L309.894 159.689L295.726 139.275L291.224 111.865Z" fill="#59916C"/>
<path d="M278.927 100.65C286.241 96.6366 288.929 87.4309 284.931 80.0888C280.933 72.7466 271.762 70.0483 264.448 74.0619C257.134 78.0755 254.446 87.2811 258.445 94.6232C262.443 101.965 271.613 104.664 278.927 100.65Z" fill="#9E616A"/>
<path d="M284.415 73.8079C283.701 70.7994 281.202 68.4248 278.328 67.3113C275.454 66.1977 272.253 66.2085 269.216 66.7266C264.174 67.5865 259.466 69.769 254.827 71.9296L258.403 73.6468L253.469 73.931L257.281 75.9103C256.263 76.6881 255.489 77.7428 255.05 78.9492C254.611 80.1555 254.526 81.463 254.805 82.7165C255.001 83.5367 255.525 84.4407 256.365 84.469C257.38 84.5033 257.91 83.3155 258.621 82.5869C259.567 81.6176 261.06 81.4025 262.399 81.5851C263.738 81.7677 265.008 82.285 266.33 82.5709C268 82.9203 269.726 82.9011 271.388 82.5144C273.051 82.1278 274.609 81.3831 275.957 80.3318L280.711 91.8242C280.666 91.3908 280.722 90.9528 280.873 90.5445C281.025 90.1362 281.269 89.7687 281.585 89.4705C281.902 89.1723 282.283 88.9516 282.698 88.8257C283.114 88.6997 283.553 88.6718 283.981 88.7443C284.409 88.8167 284.814 88.9875 285.166 89.2433C285.517 89.4991 285.805 89.833 286.006 90.2189C286.208 90.6047 286.318 91.0322 286.328 91.4678C286.338 91.9034 286.247 92.3354 286.063 92.7301C288.122 89.6139 289.777 86.0734 289.834 82.3349C289.891 78.5963 288.044 74.658 284.663 73.0892" fill="#2F2E41"/>
<path d="M109.504 305.962L103.075 316.108L106.819 302.9C98.9128 294.618 87.9672 288.56 87.9672 288.56C87.9672 288.56 74.4895 310.796 78.117 324.474C81.7446 338.152 91.1114 340.763 101.104 338.093C111.096 335.422 117.929 328.482 114.302 314.803C113.494 311.759 111.741 308.77 109.504 305.962Z" fill="#59906C"/>
<path d="M100.997 317.119L101.176 317.794C103.215 325.641 103.52 332.108 102.078 337.104C102.058 337.177 102.034 337.248 102.015 337.321L101.679 337.221L101.357 337.122C102.99 331.706 102.261 324.863 100.484 318.018C100.429 317.797 100.373 317.572 100.311 317.349C99.5333 314.458 98.5808 311.578 97.544 308.81C97.4656 308.595 97.383 308.377 97.3005 308.16C95.9132 304.513 94.3973 301.08 92.9929 298.12C92.8945 297.911 92.7929 297.702 92.6921 297.496C90.2945 292.497 88.262 288.955 87.8053 288.173C87.7513 288.076 87.7196 288.024 87.7127 288.011L88.0047 287.837L88.0071 287.833L88.3024 287.657C88.3093 287.67 88.4163 287.845 88.6032 288.174C89.3095 289.4 91.1854 292.741 93.3483 297.232C93.4448 297.435 93.5465 297.643 93.6448 297.853C94.787 300.254 95.998 302.954 97.1498 305.82C97.4403 306.539 97.7182 307.251 97.9834 307.956C98.0693 308.173 98.1519 308.39 98.2302 308.605C99.3514 311.597 100.274 314.435 100.997 317.119Z" fill="white"/>
<path d="M93.3483 297.232C93.1335 297.322 92.9154 297.412 92.6921 297.497C92.0862 297.728 91.4688 297.927 90.8425 298.095C88.1743 298.812 85.3798 298.919 82.6649 298.408C82.5722 298.622 82.4795 298.836 82.3843 299.054C85.2473 299.619 88.2009 299.519 91.0196 298.762C91.6881 298.584 92.3468 298.369 92.9929 298.121C93.2128 298.037 93.4309 297.946 93.6448 297.854C95.4134 297.097 97.0574 296.076 98.5205 294.824C98.3288 294.679 98.1414 294.536 97.9581 294.396C96.5691 295.564 95.0157 296.52 93.3483 297.232Z" fill="white"/>
<path d="M97.9834 307.957C97.7575 308.031 97.5299 308.099 97.3005 308.161C97.2315 308.183 97.1584 308.202 97.0885 308.221C94.1963 308.994 91.1608 309.053 88.2407 308.394C85.3206 307.735 82.6026 306.377 80.3184 304.435C80.2377 304.668 80.1569 304.9 80.0804 305.135C82.4419 307.086 85.2326 308.444 88.2211 309.097C91.2096 309.75 94.3101 309.678 97.2656 308.888C97.3587 308.864 97.4518 308.839 97.544 308.811C97.7759 308.745 98.0035 308.677 98.2303 308.606C101.732 307.474 104.835 305.355 107.168 302.5C107.009 302.331 106.851 302.163 106.689 301.995C104.427 304.79 101.401 306.862 97.9834 307.957Z" fill="white"/>
<path d="M100.997 317.119C100.77 317.202 100.541 317.277 100.311 317.349C100.064 317.426 99.8164 317.499 99.567 317.566C95.6794 318.6 91.5627 318.342 87.8333 316.831C84.1038 315.32 80.9623 312.637 78.8789 309.184C78.801 309.494 78.7222 309.801 78.6509 310.11C80.8701 313.517 84.1026 316.137 87.8892 317.595C91.6757 319.053 95.8238 319.277 99.7441 318.234C99.9935 318.167 100.242 318.097 100.484 318.018C100.719 317.948 100.948 317.872 101.176 317.794C105.779 316.168 109.595 312.847 111.851 308.503C111.716 308.275 111.571 308.053 111.426 307.827C109.286 312.168 105.545 315.501 100.997 317.119Z" fill="white"/>
<path d="M360.275 307.02L353.939 317.019L357.63 304.002C349.838 295.841 339.051 289.87 339.051 289.87C339.051 289.87 325.769 311.783 329.344 325.263C332.919 338.742 342.15 341.315 351.997 338.684C361.844 336.052 368.578 329.212 365.003 315.733C364.208 312.732 362.479 309.787 360.275 307.02Z" fill="#CA0061"/>
<path d="M351.892 318.015L352.069 318.68C354.077 326.414 354.378 332.786 352.957 337.71C352.938 337.782 352.914 337.851 352.895 337.924L352.563 337.825L352.246 337.727C353.855 332.39 353.137 325.647 351.387 318.901C351.332 318.683 351.277 318.462 351.216 318.242C350.449 315.393 349.511 312.555 348.489 309.827C348.412 309.615 348.33 309.401 348.249 309.186C346.882 305.593 345.388 302.209 344.004 299.292C343.907 299.086 343.807 298.88 343.708 298.678C341.345 293.751 339.342 290.26 338.892 289.489C338.839 289.394 338.807 289.343 338.801 289.331L339.088 289.158L339.091 289.154L339.382 288.981C339.389 288.994 339.494 289.166 339.678 289.49C340.374 290.699 342.223 293.992 344.354 298.417C344.449 298.617 344.55 298.823 344.647 299.029C345.772 301.395 346.966 304.056 348.101 306.88C348.387 307.589 348.661 308.291 348.922 308.985C349.007 309.199 349.088 309.413 349.165 309.625C350.27 312.574 351.179 315.371 351.892 318.015Z" fill="white"/>
<path d="M344.354 298.417C344.143 298.505 343.928 298.594 343.708 298.678C343.11 298.905 342.502 299.102 341.885 299.267C339.255 299.973 336.501 300.079 333.826 299.575C333.735 299.786 333.643 299.997 333.549 300.212C336.371 300.768 339.282 300.67 342.059 299.925C342.718 299.748 343.367 299.537 344.004 299.292C344.221 299.21 344.436 299.121 344.646 299.029C346.389 298.284 348.009 297.277 349.451 296.044C349.262 295.9 349.078 295.76 348.897 295.621C347.528 296.772 345.997 297.714 344.354 298.417Z" fill="white"/>
<path d="M348.922 308.985C348.699 309.059 348.475 309.126 348.249 309.186C348.181 309.208 348.109 309.227 348.04 309.246C345.19 310.007 342.198 310.066 339.321 309.416C336.443 308.767 333.765 307.428 331.514 305.515C331.434 305.744 331.354 305.973 331.279 306.205C333.606 308.127 336.356 309.466 339.301 310.109C342.247 310.752 345.302 310.682 348.215 309.904C348.306 309.879 348.398 309.854 348.489 309.827C348.717 309.762 348.942 309.695 349.165 309.625C352.616 308.51 355.674 306.421 357.973 303.608C357.817 303.442 357.661 303.276 357.501 303.11C355.272 305.865 352.29 307.907 348.922 308.985Z" fill="white"/>
<path d="M351.892 318.016C351.668 318.097 351.442 318.171 351.215 318.242C350.972 318.318 350.728 318.39 350.483 318.456C346.651 319.475 342.595 319.221 338.919 317.732C335.244 316.243 332.148 313.599 330.095 310.195C330.018 310.501 329.941 310.804 329.87 311.108C332.057 314.466 335.243 317.047 338.974 318.484C342.706 319.921 346.794 320.142 350.657 319.114C350.903 319.048 351.148 318.979 351.387 318.901C351.618 318.832 351.843 318.758 352.068 318.68C356.605 317.078 360.365 313.805 362.588 309.525C362.455 309.3 362.312 309.081 362.169 308.858C360.06 313.136 356.374 316.421 351.892 318.016Z" fill="white"/>
<path d="M229.152 58.6062C229.152 34.6887 212.541 15.2998 192.051 15.2998C171.561 15.2998 154.951 34.6887 154.951 58.6062C154.951 80.2983 168.614 98.2648 186.443 101.42V105.502C186.443 106.273 186.748 107.012 187.291 107.557C187.834 108.102 188.571 108.409 189.339 108.409H194.764C195.532 108.409 196.268 108.102 196.811 107.557C197.354 107.012 197.659 106.273 197.659 105.502V101.42C215.488 98.2648 229.152 80.2983 229.152 58.6062Z" fill="#CA0061"/>
<path d="M185.551 104.912C186.712 103.817 188.095 102.988 189.605 102.481C191.115 101.974 192.717 101.801 194.3 101.974C195.896 102.159 197.426 102.714 198.772 103.595C200.117 104.476 201.24 105.658 202.053 107.049C202.866 108.398 203.376 109.909 203.549 111.477C203.722 113.044 203.554 114.63 203.055 116.126C202.079 119.108 200.007 121.59 197.881 123.827C195.652 126.173 193.227 128.338 191.131 130.811C187.675 134.913 185.262 139.796 184.098 145.04C182.934 150.285 183.055 155.734 184.45 160.921C186.289 167.496 190.087 173.349 195.333 177.696C195.999 178.243 196.685 178.763 197.391 179.258C198.208 179.832 198.981 178.487 198.171 177.918C192.475 173.873 188.266 168.056 186.194 161.369C184.623 156.157 184.422 150.626 185.61 145.313C186.799 140 189.337 135.086 192.977 131.05C195.188 128.599 197.663 126.405 199.874 123.954C201.991 121.606 203.921 118.957 204.748 115.854C205.167 114.277 205.271 112.632 205.054 111.014C204.837 109.397 204.303 107.838 203.483 106.428C202.668 104.987 201.564 103.73 200.242 102.737C198.92 101.744 197.407 101.036 195.8 100.657C192.566 99.9509 189.185 100.538 186.375 102.295C185.687 102.735 185.045 103.244 184.458 103.814C183.74 104.508 184.834 105.605 185.551 104.912V104.912Z" fill="#3F3D56"/>
<path d="M86.1852 40.4715C74.8333 14.2747 47.4372 0.982608 24.9944 10.7829C2.55146 20.5831 -6.43946 49.7645 4.91244 75.9613C15.2081 99.7207 38.7012 112.864 59.7269 107.793L61.664 112.263C62.0299 113.108 62.715 113.772 63.5686 114.109C64.4221 114.447 65.3742 114.43 66.2154 114.062L72.1574 111.468C72.9986 111.1 73.66 110.413 73.996 109.556C74.3321 108.699 74.3153 107.743 73.9494 106.899L72.0124 102.429C90.0426 90.4448 96.4809 64.2309 86.1852 40.4715Z" fill="#F00E00"/>
<path d="M60.2933 111.91C61.0309 110.204 62.1173 108.673 63.482 107.416C64.8467 106.158 66.4592 105.203 68.2153 104.611C69.9397 104.028 71.7701 103.83 73.5785 104.032C75.3868 104.234 77.1295 104.83 78.6843 105.778C80.2861 106.731 81.6673 108.015 82.7356 109.546C83.8039 111.077 84.535 112.818 84.8799 114.655C85.6722 118.911 84.3866 123.247 82.9258 127.21C81.3944 131.364 79.4862 135.398 78.4214 139.712C76.9395 145.775 76.9096 152.105 78.334 158.181C79.7583 164.258 82.5965 169.91 86.616 174.674C91.6785 180.563 98.3459 184.837 105.798 186.971C106.712 187.229 107.635 187.45 108.566 187.639C109.537 187.837 109.953 186.341 108.977 186.143C101.224 184.541 94.1582 180.56 88.7574 174.751C83.0321 168.537 79.5735 160.559 78.9458 152.118C78.6097 147.842 79.0001 143.539 80.1005 139.394C81.2751 135.02 83.2633 130.925 84.7623 126.663C86.1926 122.596 87.2062 118.229 86.3076 113.926C85.4814 110.136 83.1909 106.831 79.939 104.736C78.3806 103.704 76.6334 102.994 74.7991 102.646C72.9647 102.298 71.0798 102.32 69.2538 102.71C65.5249 103.558 62.2579 105.8 60.1174 108.98C59.5968 109.773 59.1563 110.616 58.8027 111.497C58.4226 112.419 59.9177 112.821 60.2934 111.91L60.2933 111.91Z" fill="#3F3D56"/>
<path d="M33.0793 219.991L31.0377 222.562L23.8165 218.274L25.8581 215.702L33.0793 219.991Z" fill="#2B7FFF"/>
<path d="M40.6143 231.039L42.4178 233.741L34.8318 237.529L33.0283 234.827L40.6143 231.039Z" fill="#F00E00"/>
<path d="M48.4673 219.294L52.0712 219.422L51.7126 226.991L48.1087 226.864L48.4673 219.294Z" fill="#FFB7B7"/>
<path d="M118.102 15.151L116.06 17.7224L108.839 13.4342L110.88 10.8623L118.102 15.151Z" fill="#E4E4E4"/>
<path d="M125.637 26.2002L127.44 28.9019L119.854 32.6899L118.051 29.9882L125.637 26.2002Z" fill="#E4E4E4"/>
<path d="M133.489 14.4551L137.093 14.5828L136.735 22.1526L133.131 22.0248L133.489 14.4551Z" fill="#E4E4E4"/>
<path d="M318.548 42.0494L316.506 44.6208L309.285 40.3326L311.327 37.7607L318.548 42.0494Z" fill="#59906C"/>
<path d="M326.083 53.0986L327.886 55.8003L320.3 59.5883L318.497 56.8866L326.083 53.0986Z" fill="#CA0061"/>
<path d="M333.936 41.3535L337.54 41.4813L337.181 49.051L333.577 48.9233L333.936 41.3535Z" fill="#FFC700"/>
<path d="M257.229 4.28869L255.187 6.86004L247.966 2.57187L250.008 0L257.229 4.28869Z" fill="#E4E4E4"/>
<path d="M264.764 15.3379L266.567 18.0396L258.981 21.8276L257.178 19.1259L264.764 15.3379Z" fill="#E4E4E4"/>
<path d="M272.617 3.59277L276.221 3.72054L275.862 11.2903L272.258 11.1625L272.617 3.59277Z" fill="#E4E4E4"/>
<path d="M319.571 197.597L317.529 200.582L324.751 205.56L326.793 202.575L319.571 197.597Z" fill="#59916C"/>
<path d="M326.741 219.797L328.545 222.933L336.131 218.536L334.327 215.4L326.741 219.797Z" fill="#59906C"/>
<path d="M341.822 210.553L345.426 210.701L345.784 201.915L342.18 201.767L341.822 210.553Z" fill="#E4E4E4"/>
<path d="M166.385 333.056L172.628 332.086L168.348 282.015L154.435 284.601L166.385 333.056Z" fill="#FFB6B6"/>
<path d="M164.477 331.257L176.772 329.348L176.773 329.348C178.851 329.025 180.971 329.545 182.668 330.792C184.365 332.039 185.498 333.911 185.82 335.997L185.859 336.253L165.729 339.378L164.477 331.257Z" fill="#2F2E41"/>
<path d="M100.77 332.434L107.082 332.704L114.758 288.221L100.846 288.221L100.77 332.434Z" fill="#FFB6B6"/>
<path d="M99.248 330.297L111.678 330.829H111.678C113.779 330.919 115.758 331.843 117.18 333.398C118.603 334.952 119.351 337.011 119.262 339.12L119.251 339.378L98.8997 338.508L99.248 330.297Z" fill="#2F2E41"/>
<path d="M113.197 187.505C112.899 187.421 112.594 187.364 112.286 187.335L116.221 155.005L129.571 126.624C130.411 124.838 130.545 122.8 129.947 120.919C129.348 119.038 128.061 117.455 126.346 116.489C124.63 115.523 122.614 115.246 120.703 115.714C118.792 116.182 117.129 117.36 116.05 119.011V119.011C112.551 124.359 109.904 130.222 108.205 136.389L102.596 156.747L106.697 191.659C106.54 192.643 106.669 193.652 107.069 194.564C107.47 195.476 108.124 196.252 108.954 196.799C109.783 197.347 110.753 197.642 111.746 197.649C112.738 197.657 113.712 197.376 114.55 196.841C115.387 196.305 116.053 195.539 116.466 194.633C116.88 193.727 117.024 192.72 116.881 191.734C116.738 190.748 116.314 189.824 115.661 189.074C115.007 188.323 114.151 187.779 113.197 187.505H113.197Z" fill="#FFB6B6"/>
<path d="M121.303 157.743L104.435 138.373L112.791 118.643C113.886 116.059 115.942 114.007 118.523 112.925C121.103 111.842 124.002 111.815 126.603 112.849C129.203 113.882 131.297 115.895 132.44 118.458C133.582 121.02 133.681 123.93 132.717 126.565L121.303 157.743Z" fill="#2F2E41"/>
<path d="M149.341 95.9923C153.4 88.5401 150.671 79.1966 143.248 75.1229C135.824 71.0492 126.516 73.7879 122.458 81.2401C118.4 88.6922 121.129 98.0358 128.552 102.109C135.976 106.183 145.283 103.444 149.341 95.9923Z" fill="#FFB6B6"/>
<path d="M138.461 69.9336H128.566C122.078 69.9336 116.819 75.8729 116.819 83.1993L117.277 100.97C124.287 101.845 131.143 103.686 137.652 106.44L138.576 102.481L140.398 107.695C142.018 108.484 143.625 109.345 145.218 110.281C143.358 101.512 142.593 92.7645 143.87 85.969H147.221V82.287L148.359 85.969H154.435V85.969C154.435 83.8632 154.022 81.778 153.219 79.8325C152.417 77.887 151.24 76.1192 149.757 74.6302C148.273 73.1412 146.512 71.96 144.574 71.1542C142.636 70.3483 140.559 69.9336 138.461 69.9336Z" fill="#2F2E41"/>
<path d="M170.727 284.735L169.294 285.082L168.09 262.617L159.33 195.372L149.282 169.767L154.178 151.921C154.178 151.921 159.846 139.507 145.675 129.937L134.339 110.798C126.508 105.659 120.066 109.019 116.631 117.756C113.639 125.368 111.316 134.998 112.697 144.938C115.792 167.204 118.365 169.767 118.365 169.767C118.365 169.767 99.042 191.234 103.164 218.649L100.867 289.631L98.765 289.545L98.5348 295.183L116.898 295.939L117.128 290.301L115.605 290.238L122.23 262.1L132.02 224.857L149.025 270.376L154.744 288.599L152.86 289.055L154.176 294.541L172.043 290.221L170.727 284.735Z" fill="#2F2E41"/>
<path d="M183.346 157.271C183.138 157.501 182.951 157.749 182.787 158.013L155.733 140.034L136.405 115.363C135.189 113.811 133.432 112.78 131.488 112.477C129.545 112.174 127.559 112.623 125.932 113.732C124.305 114.841 123.157 116.528 122.72 118.453C122.283 120.378 122.59 122.398 123.579 124.105C126.781 129.637 130.824 134.634 135.561 138.915L151.198 153.049L184.144 164.964C184.95 165.545 185.907 165.88 186.899 165.928C187.89 165.976 188.875 165.735 189.733 165.234C190.592 164.734 191.288 163.995 191.738 163.107C192.188 162.218 192.373 161.219 192.27 160.227C192.167 159.236 191.781 158.296 191.159 157.519C190.536 156.743 189.703 156.164 188.761 155.852C187.818 155.539 186.805 155.507 185.845 155.759C184.884 156.011 184.016 156.536 183.346 157.271H183.346Z" fill="#FFB6B6"/>
<path d="M160.443 136.693L135.644 143.187L121.794 126.867C119.981 124.73 119.071 121.966 119.259 119.165C119.447 116.364 120.718 113.748 122.801 111.875C124.884 110.001 127.614 109.019 130.408 109.139C133.202 109.258 135.839 110.468 137.757 112.512L160.443 136.693Z" fill="#2F2E41"/>
<path d="M352.659 339.905H19.1172C18.9545 339.905 18.7985 339.84 18.6834 339.724C18.5683 339.609 18.5037 339.452 18.5037 339.289C18.5037 339.125 18.5683 338.969 18.6834 338.853C18.7985 338.738 18.9545 338.673 19.1172 338.673H352.659C352.822 338.673 352.978 338.738 353.093 338.853C353.208 338.969 353.272 339.125 353.272 339.289C353.272 339.452 353.208 339.609 353.093 339.724C352.978 339.84 352.822 339.905 352.659 339.905Z" fill="#CACACA"/>
<g clip-path="url(#clip0)">
<path d="M731.69 125.718C758.539 125.718 780.304 105.686 780.304 80.9755C780.304 56.2651 758.539 36.2334 731.69 36.2334C704.842 36.2334 683.077 56.2651 683.077 80.9755C683.077 105.686 704.842 125.718 731.69 125.718Z" fill="#FF6584"/>
<path d="M990.074 266.073H593.275L735.899 78.3893L791.671 5L834.125 60.8602L990.074 266.073Z" fill="#2C6241"/>
<path d="M972.741 76.0723L828.351 266.073H1117.13L972.741 76.0723L828.351 266.073H1117.13L972.741 76.0723Z" fill="#2C6241"/>
<path d="M791.671 5L794.955 57.6854L784.105 133.499C784.105 133.499 873.719 176.922 873.96 178.901C874.201 180.879 855.083 236.553 855.083 236.553L990.075 266.073L791.671 5Z" fill="#59916C"/>
<path d="M972.741 76.0723L996.283 127.052L1038.02 204.17L1062.73 215.796C1062.73 215.796 1061.11 233.854 1061.22 236.173C1061.33 238.492 1117.13 266.073 1117.13 266.073L972.741 76.0723Z" fill="#59916C"/>
<path d="M1175.33 266.073H566.666C566.489 266.073 566.32 266.009 566.195 265.894C566.07 265.779 566 265.623 566 265.461C566 265.298 566.07 265.142 566.195 265.027C566.32 264.912 566.489 264.848 566.666 264.848H1175.33C1175.51 264.848 1175.68 264.912 1175.8 265.027C1175.93 265.142 1176 265.298 1176 265.461C1176 265.623 1175.93 265.779 1175.8 265.894C1175.68 266.009 1175.51 266.073 1175.33 266.073Z" fill="#2C6241"/>
<path d="M768.159 289.373C792.888 289.373 812.935 270.923 812.935 248.164C812.935 225.404 792.888 206.954 768.159 206.954C743.431 206.954 723.384 225.404 723.384 248.164C723.384 270.923 743.431 289.373 768.159 289.373Z" fill="#CE734C"/>
<path opacity="0.2" d="M735.099 220.639C730.922 229.63 730.356 239.696 733.5 249.037C736.645 258.377 743.296 266.385 752.265 271.628C761.233 276.871 771.935 279.008 782.459 277.657C792.982 276.306 802.64 271.555 809.708 264.254C807.156 269.747 803.338 274.665 798.517 278.665C793.696 282.665 787.987 285.653 781.787 287.422C775.586 289.19 769.042 289.697 762.608 288.906C756.174 288.116 750.003 286.047 744.524 282.844C739.044 279.641 734.387 275.38 730.875 270.356C727.362 265.331 725.079 259.664 724.182 253.747C723.286 247.83 723.798 241.804 725.683 236.088C727.568 230.371 730.78 225.099 735.099 220.639Z" fill="black"/>
<path d="M768.282 248.163H768.405L770.62 364.999H765.945L768.282 248.163Z" fill="#3F3D56"/>
<path d="M829.074 186.071C863.732 186.071 891.828 160.212 891.828 128.314C891.828 96.4154 863.732 70.5566 829.074 70.5566C794.415 70.5566 766.319 96.4154 766.319 128.314C766.319 160.212 794.415 186.071 829.074 186.071Z" fill="#CE734C"/>
<path opacity="0.2" d="M875.41 89.7363C881.263 102.339 882.058 116.446 877.65 129.537C873.243 142.629 863.921 153.851 851.351 161.199C838.781 168.548 823.782 171.543 809.033 169.649C794.284 167.756 780.748 161.098 770.842 150.865C774.418 158.564 779.77 165.456 786.527 171.063C793.284 176.67 801.285 180.857 809.975 183.336C818.665 185.814 827.837 186.524 836.854 185.416C845.872 184.308 854.521 181.409 862.2 176.92C869.88 172.431 876.407 166.458 881.33 159.417C886.253 152.375 889.453 144.432 890.71 136.139C891.966 127.846 891.249 119.401 888.607 111.389C885.965 103.376 881.462 95.9881 875.41 89.7363Z" fill="black"/>
<path d="M828.901 128.313H828.729L825.626 292.064H832.177L828.901 128.313Z" fill="#3F3D56"/>
<path d="M924.783 76.4567L933.304 70.1845C926.684 69.5124 923.965 72.8349 922.852 75.4647C917.68 73.4884 912.051 76.0784 912.051 76.0784L929.099 81.7746C928.239 79.6604 926.742 77.8156 924.783 76.4567Z" fill="#3F3D56"/>
<path d="M935.827 27.5729L944.347 21.3007C937.728 20.6286 935.008 23.9511 933.895 26.5809C928.724 24.6046 923.094 27.1946 923.094 27.1946L940.143 32.8908C939.283 30.7766 937.785 28.9319 935.827 27.5729Z" fill="#3F3D56"/>
<path d="M997.178 79.0279L1005.7 72.7558C999.079 72.0837 996.36 75.4062 995.247 78.036C990.075 76.0597 984.446 78.6497 984.446 78.6497L1001.49 84.3459C1000.63 82.2317 999.137 80.3869 997.178 79.0279Z" fill="#3F3D56"/>
<path d="M1017.22 355.419C1017.22 355.419 1017.54 349.132 1024.22 349.862L1017.22 355.419Z" fill="#59906C"/>
<path d="M1045.54 355.419C1045.54 355.419 1045.87 349.132 1052.55 349.862L1045.54 355.419Z" fill="#59906C"/>
<path d="M1032.32 355.419C1032.32 355.419 1032.65 349.132 1039.33 349.862L1032.32 355.419Z" fill="#59906C"/>
<path d="M1005.05 355.419C1005.05 355.419 1004.73 349.132 998.044 349.862L1005.05 355.419Z" fill="#59906C"/>
<path d="M1033.38 355.853C1033.38 355.853 1033.05 349.566 1026.37 350.297L1033.38 355.853Z" fill="#59906C"/>
<path d="M916.308 264.478L915.643 264.882L965.725 334.718L966.39 334.313L916.308 264.478Z" fill="#2F2E41"/>
<path d="M886.291 350.107L891.177 350.107L893.502 332.758L886.289 332.758L886.291 350.107Z" fill="#A0616A"/>
<path d="M885.044 348.638L894.668 348.638H894.669C896.295 348.638 897.855 349.232 899.005 350.291C900.156 351.35 900.802 352.785 900.802 354.283V354.466L885.044 354.467L885.044 348.638Z" fill="#2F2E41"/>
<path d="M854.351 345.802L858.943 347.34L867.576 331.769L860.798 329.499L854.351 345.802Z" fill="#A0616A"/>
<path d="M853.725 344.029L862.769 347.059L862.77 347.059C864.298 347.571 865.543 348.621 866.23 349.978C866.918 351.335 866.991 352.887 866.435 354.294L866.367 354.467L851.559 349.506L853.725 344.029Z" fill="#2F2E41"/>
<path d="M884.897 231.666L895.261 234.601L903.632 247.442L900.443 262.484L898.849 275.691V334.392C898.849 334.392 886.582 337.327 881.355 334.392L883.302 300.272L870.148 336.593L855.399 331.457L872.141 280.461C871.872 276.69 872.557 272.912 874.144 269.426C875.581 266.323 878.102 263.75 881.309 262.117V259.182L878.12 240.471L884.897 231.666Z" fill="#FF6584"/>
<path d="M892.753 230.184C898.16 230.184 902.543 226.15 902.543 221.173C902.543 216.196 898.16 212.162 892.753 212.162C887.346 212.162 882.962 216.196 882.962 221.173C882.962 226.15 887.346 230.184 892.753 230.184Z" fill="#A0616A"/>
<path d="M902.204 218.824C900.879 218.581 899.504 218.725 898.272 219.235C897.039 219.745 896.011 220.597 895.329 221.671C894.993 220.531 892.995 220.59 892.255 221.555C891.516 222.521 891.679 223.826 891.919 224.987C892.159 226.147 892.431 227.408 891.848 228.461C891.538 228.953 891.091 229.36 890.554 229.642C890.016 229.923 889.408 230.068 888.79 230.062C887.55 230.035 886.345 229.682 885.316 229.045C883.399 227.959 881.867 226.385 880.904 224.512C879.942 222.64 879.592 220.55 879.897 218.498C880.201 216.446 881.147 214.519 882.619 212.952C884.092 211.386 886.027 210.247 888.19 209.674C890.609 209.033 893.178 209.132 895.692 209.261C897.741 209.264 899.774 209.591 901.702 210.229C903.585 210.963 905.259 212.421 905.606 214.276C905.953 216.13 904.774 219.451 902.737 219.614" fill="#2F2E41"/>
<path d="M886.772 210.94C887.66 210.805 888.522 210.551 889.33 210.187C889.73 210.006 890.081 209.746 890.359 209.426C890.638 209.105 890.836 208.733 890.94 208.334C891.022 207.936 890.941 207.525 890.712 207.179C890.483 206.834 890.122 206.579 889.701 206.465C889.055 206.416 888.406 206.514 887.812 206.752C887.516 206.868 887.194 206.915 886.874 206.886C886.553 206.857 886.246 206.755 885.981 206.589C885.454 206.134 885.58 205.313 885.13 204.796C884.888 204.572 884.578 204.421 884.24 204.364C883.903 204.306 883.555 204.345 883.242 204.474C882.617 204.742 882.059 205.126 881.603 205.602L879.19 207.802C878.721 208.23 878.213 208.761 878.332 209.345C878.443 209.645 878.669 209.897 878.968 210.054C879.267 210.211 879.618 210.261 879.955 210.196C880.637 210.051 881.27 209.754 881.799 209.331C881.042 209.765 880.433 210.385 880.04 211.122C879.852 211.485 879.777 211.888 879.823 212.288C879.869 212.687 880.033 213.068 880.299 213.386C881.161 214.3 882.794 214.175 884.048 213.719C885.706 213.116 887.141 212.088 888.184 210.757" fill="#2F2E41"/>
<path d="M886.792 208.273C884.583 207.808 882.4 207.141 880.865 206.031C879.33 204.921 878.566 203.291 879.437 201.922C878.997 202.617 878.785 203.413 878.825 204.217C878.866 205.02 879.157 205.795 879.665 206.45C880.988 208.018 882.89 209.087 885.011 209.453C885.458 209.581 885.937 209.58 886.384 209.45C886.782 209.287 886.795 208.807 886.331 208.745" fill="#2F2E41"/>
<path d="M914.231 261.317C914.04 261.418 913.857 261.533 913.686 261.66L894.814 256.242L893.752 251.932L886.474 252.555L887.547 260.355C887.634 260.985 887.94 261.572 888.421 262.029C888.901 262.485 889.529 262.785 890.21 262.885L912.422 266.135C912.746 266.859 913.301 267.474 914.014 267.9C914.726 268.325 915.563 268.541 916.412 268.518C917.262 268.496 918.084 268.236 918.768 267.773C919.453 267.31 919.969 266.666 920.246 265.927C920.524 265.187 920.55 264.388 920.322 263.635C920.094 262.881 919.622 262.21 918.969 261.709C918.316 261.209 917.513 260.903 916.666 260.833C915.82 260.763 914.971 260.932 914.231 261.317Z" fill="#A0616A"/>
<path d="M885.694 237.902C885.694 237.902 887.399 233.418 892.526 233.826C897.653 234.234 894.863 252.211 894.863 252.211L884.897 264.684L885.694 237.902Z" fill="#FF6584"/>
<path d="M942.639 349.691L939.075 342.671L944.584 340.302L948.148 347.322V347.322C948.489 347.994 948.525 348.763 948.25 349.46C947.974 350.157 947.409 350.725 946.68 351.039C945.95 351.353 945.114 351.387 944.357 351.135C943.599 350.882 942.981 350.363 942.639 349.691Z" fill="#101010"/>
<path d="M930.375 334.669C932.442 334.669 934.117 333.127 934.117 331.225C934.117 329.323 932.442 327.781 930.375 327.781C928.308 327.781 926.633 329.323 926.633 331.225C926.633 333.127 928.308 334.669 930.375 334.669Z" fill="#101010"/>
<path d="M959.032 351.094L955.468 344.073L960.977 341.704L964.541 348.724C964.882 349.396 964.92 350.166 964.645 350.864C964.369 351.561 963.804 352.13 963.074 352.444C962.343 352.758 961.507 352.792 960.749 352.539C959.991 352.286 959.374 351.766 959.032 351.094Z" fill="#101010"/>
<path d="M930.385 338.194C930.582 336.262 931.604 334.481 933.227 333.242C934.849 332.003 936.939 331.407 939.038 331.584L964.102 333.729C964.989 333.806 965.806 334.203 966.375 334.835C966.944 335.466 967.218 336.279 967.137 337.095L966.872 339.72C966.631 342.071 965.387 344.239 963.413 345.747C961.438 347.255 958.894 347.981 956.339 347.765L937.566 346.158C935.467 345.976 933.533 345.036 932.186 343.543C930.84 342.05 930.192 340.126 930.385 338.194Z" fill="#CE734C"/>
<path d="M935.032 349.906L935.811 342.191L941.865 342.709L941.086 350.425C941.011 351.163 940.62 351.844 940 352.318C939.38 352.791 938.58 353.019 937.778 352.95C936.975 352.882 936.235 352.522 935.72 351.952C935.205 351.381 934.957 350.645 935.032 349.906Z" fill="#101010"/>
<path d="M952.6 351.409L953.379 343.694L959.434 344.212L958.654 351.927C958.579 352.666 958.189 353.347 957.568 353.821C956.948 354.294 956.148 354.522 955.346 354.453C954.543 354.384 953.803 354.025 953.288 353.454C952.773 352.884 952.526 352.148 952.6 351.409Z" fill="#3F3D56"/>
<path d="M980.317 322.991C980.658 322.665 981.066 322.404 981.518 322.223C981.969 322.042 982.454 321.945 982.947 321.937C983.439 321.929 983.928 322.011 984.386 322.177C984.844 322.343 985.261 322.591 985.615 322.906C985.969 323.222 986.251 323.598 986.446 324.014C986.642 324.43 986.746 324.877 986.753 325.33C986.761 325.783 986.671 326.233 986.489 326.654C986.307 327.075 986.036 327.458 985.693 327.783L978.859 334.277L973.483 329.485L980.317 322.991Z" fill="#101010"/>
<path d="M964.167 335.554L969.642 330.351C970.973 329.089 972.793 328.365 974.703 328.337C976.614 328.309 978.458 328.979 979.832 330.201L981.251 331.465C982.886 332.926 983.824 334.923 983.861 337.019C983.897 339.116 983.029 341.14 981.446 342.648L976.936 346.934C976.437 347.407 975.756 347.678 975.041 347.688C974.325 347.699 973.635 347.448 973.12 346.99L964.229 339.065C963.715 338.607 963.421 337.98 963.409 337.321C963.398 336.663 963.67 336.027 964.167 335.554Z" fill="#CE734C"/>
<path d="M981.13 322.219C981.365 321.995 981.646 321.817 981.956 321.693C982.266 321.569 982.599 321.503 982.937 321.498C983.275 321.493 983.61 321.55 983.924 321.664C984.239 321.778 984.525 321.949 984.768 322.165C985.011 322.381 985.205 322.639 985.339 322.925C985.473 323.21 985.545 323.517 985.55 323.828C985.556 324.139 985.495 324.447 985.37 324.737C985.246 325.026 985.061 325.29 984.826 325.513L977.179 332.78L973.483 329.486L981.13 322.219Z" fill="#CE734C"/>
<path d="M969.986 334.506L979.73 343.191C980.44 343.827 980.847 344.696 980.862 345.608C980.876 346.52 980.498 347.4 979.808 348.055C979.119 348.71 978.176 349.086 977.185 349.102C976.194 349.118 975.237 348.772 974.524 348.139L964.78 339.454L969.986 334.506Z" fill="#CE734C"/>
<path d="M980.24 348.353C980.847 347.776 981.056 347.058 980.708 346.748C980.36 346.437 979.587 346.653 978.98 347.23C978.374 347.806 978.164 348.525 978.512 348.835C978.86 349.145 979.634 348.929 980.24 348.353Z" fill="#CA0061"/>
<path d="M965.219 343.013H967.212V332.74H965.219V343.013Z" fill="#2F2E41"/>
<path d="M1081.04 299.446H1075.32L1072.6 279.148H1081.04L1081.04 299.446Z" fill="#FFB8B8"/>
<path d="M1082.5 304.547L1064.06 304.547V304.332C1064.06 302.58 1064.82 300.901 1066.16 299.662C1067.51 298.423 1069.34 297.728 1071.24 297.728H1071.24L1082.5 297.728L1082.5 304.547Z" fill="#2F2E41"/>
<path d="M1140.98 246.459L1142.08 251.622L1120.97 257.999L1119.34 250.379L1140.98 246.459Z" fill="#FFB8B8"/>
<path d="M1146.13 244.156L1149.7 260.805L1149.47 260.846C1147.6 261.184 1145.66 260.826 1144.08 259.85C1142.5 258.874 1141.41 257.361 1141.04 255.642L1141.04 255.642L1138.86 245.473L1146.13 244.156Z" fill="#2F2E41"/>
<path d="M1074.93 237.117C1074.93 237.117 1091.39 252.671 1097.89 259.849C1104.39 267.028 1108.29 261.843 1108.29 261.843L1124.91 257.746L1134.29 255.064C1134.29 255.064 1132.56 247.486 1132.13 247.885C1131.69 248.284 1106.25 250.449 1106.25 250.449C1106.25 250.449 1099.63 243.099 1099.19 238.313C1098.76 233.528 1087.49 227.944 1087.49 227.944L1074.93 237.117Z" fill="#FFC700"/>
<path d="M1077.96 236.718C1077.96 236.718 1074.49 250.277 1069.51 254.176C1064.52 258.074 1067.13 261.444 1067.13 261.444L1074.06 288.962L1082.73 288.563C1082.73 288.563 1079.64 266.117 1079.2 263.325C1078.77 260.534 1089.66 247.486 1089.66 247.486L1077.96 236.718Z" fill="#FFC700"/>
<path d="M1049.42 217.598C1053.49 217.598 1056.79 214.562 1056.79 210.818C1056.79 207.074 1053.49 204.038 1049.42 204.038C1045.35 204.038 1042.05 207.074 1042.05 210.818C1042.05 214.562 1045.35 217.598 1049.42 217.598Z" fill="#FFB8B8"/>
<path d="M1065.39 230.337C1066.69 230.337 1070.59 237.117 1070.59 237.117C1070.59 237.117 1079.26 239.509 1080.56 237.515C1081.86 235.521 1085.33 232.331 1088.36 231.134C1091.39 229.938 1090.09 228.742 1088.36 227.545C1086.63 226.349 1080.99 223.158 1075.79 217.575C1070.59 211.991 1062.36 210.795 1061.49 210.795C1060.63 210.795 1058.46 218.771 1058.46 218.771C1057.16 221.164 1064.09 230.337 1065.39 230.337Z" fill="#CA0061"/>
<path d="M1046.43 207.663C1047.94 208.308 1049.69 211.689 1051.8 210.217C1051.98 210.064 1052.17 209.923 1052.37 209.794C1052.67 209.687 1053 209.673 1053.31 209.755C1053.62 209.836 1053.89 210.008 1054.08 210.245C1054.51 210.685 1054.77 211.25 1055.18 211.704C1055.36 211.948 1055.62 212.133 1055.92 212.235C1056.23 212.337 1056.56 212.35 1056.87 212.273L1057.88 210.255C1058.14 209.779 1058.34 209.276 1058.48 208.757C1058.58 208.06 1058.51 207.35 1058.27 206.682C1058.03 206.015 1057.62 205.406 1057.09 204.904C1056.01 203.909 1054.77 203.074 1053.41 202.427C1052.52 201.884 1051.53 201.478 1050.49 201.224C1049.97 201.101 1049.43 201.095 1048.9 201.205C1048.38 201.316 1047.89 201.539 1047.48 201.858C1047.21 202.158 1046.92 202.438 1046.6 202.697C1046.02 202.951 1045.42 203.14 1044.79 203.258C1043.63 203.668 1042.95 204.758 1042.37 205.769C1042.06 206.21 1041.87 206.712 1041.81 207.233C1041.76 209.603 1045.08 207.085 1046.43 207.663Z" fill="#2F2E41"/>
<path d="M1062.58 304.878C1074.56 304.485 1093.56 304.874 1093.75 304.878L1094.02 304.883L1094.14 304.669C1094.17 304.619 1097.08 299.751 1101.04 300.484L1101.21 299.702C1097.09 298.941 1094.17 303.06 1093.51 304.076C1091.19 304.03 1073.79 303.711 1062.55 304.081C1050.96 304.462 1049.11 300.775 1049.1 300.737L1048.29 301.038C1048.37 301.204 1050.11 304.906 1060.9 304.906C1061.44 304.907 1062 304.897 1062.58 304.878Z" fill="#2F2E41"/>
<path d="M1060.96 305.676H1060.7C1059.82 305.676 1059.1 306.338 1059.1 307.154V307.388C1059.1 308.205 1059.82 308.866 1060.7 308.866H1060.96C1061.84 308.866 1062.56 308.205 1062.56 307.388V307.154C1062.56 306.338 1061.84 305.676 1060.96 305.676Z" fill="#2F2E41"/>
<path d="M1090.6 305.676H1090.86C1091.28 305.676 1091.69 305.832 1091.99 306.109C1092.29 306.386 1092.46 306.762 1092.46 307.154V307.388C1092.46 307.78 1092.29 308.156 1091.99 308.433C1091.69 308.711 1091.28 308.866 1090.86 308.866H1090.6C1090.18 308.866 1089.77 308.711 1089.47 308.433C1089.16 308.156 1089 307.78 1089 307.388V307.154C1089 306.762 1089.16 306.386 1089.47 306.109C1089.77 305.832 1090.18 305.676 1090.6 305.676Z" fill="#2F2E41"/>
<path d="M1062.67 244.83C1062.82 244.784 1062.97 244.748 1063.12 244.723L1068.72 233.068L1066.73 230.566L1070.45 227.321L1074.42 231.437C1074.74 231.769 1074.94 232.189 1074.98 232.632C1075.02 233.075 1074.9 233.518 1074.64 233.895L1066.27 246.173C1066.53 246.663 1066.63 247.216 1066.54 247.758C1066.46 248.3 1066.2 248.806 1065.79 249.208C1065.39 249.609 1064.86 249.888 1064.28 250.007C1063.7 250.126 1063.09 250.079 1062.54 249.873C1061.99 249.667 1061.52 249.312 1061.19 248.854C1060.87 248.396 1060.7 247.857 1060.71 247.31C1060.73 246.762 1060.92 246.232 1061.27 245.789C1061.62 245.346 1062.11 245.011 1062.67 244.83Z" fill="#FFB8B8"/>
<path d="M1074.93 227.944C1074.93 228.343 1069.73 233.926 1068.26 233.393C1066.78 232.859 1066.26 231.135 1064.04 229.354C1061.82 227.574 1059.76 217.974 1059.76 217.974C1059.76 217.974 1074.93 227.545 1074.93 227.944Z" fill="#CA0061"/>
</g>
<g filter="url(#filter0_d)">
<path d="M179.438 180.234L186.328 143.812H196.84L185.484 195H174.867L166.535 160.758L158.203 195H147.586L136.23 143.812H146.742L153.668 180.164L162.105 143.812H171.035L179.438 180.234ZM231.927 172.816H211.677V186.527H235.443V195H201.13V143.812H235.373V152.355H211.677V164.555H231.927V172.816ZM250.737 186.527H273.132V195H240.19V143.812H250.737V186.527ZM315.707 177.949C315.309 183.457 313.27 187.793 309.59 190.957C305.934 194.121 301.106 195.703 295.106 195.703C288.543 195.703 283.375 193.5 279.602 189.094C275.852 184.664 273.977 178.594 273.977 170.883V167.754C273.977 162.832 274.844 158.496 276.578 154.746C278.313 150.996 280.785 148.125 283.996 146.133C287.231 144.117 290.981 143.109 295.246 143.109C301.153 143.109 305.91 144.691 309.52 147.855C313.129 151.02 315.215 155.461 315.778 161.18H305.231C304.973 157.875 304.047 155.484 302.453 154.008C300.883 152.508 298.481 151.758 295.246 151.758C291.731 151.758 289.094 153.023 287.336 155.555C285.602 158.062 284.711 161.965 284.664 167.262V171.129C284.664 176.66 285.496 180.703 287.16 183.258C288.848 185.812 291.496 187.09 295.106 187.09C298.364 187.09 300.789 186.352 302.383 184.875C304 183.375 304.926 181.066 305.16 177.949H315.707ZM363.24 170.566C363.24 175.605 362.349 180.023 360.568 183.82C358.787 187.617 356.232 190.547 352.904 192.609C349.599 194.672 345.803 195.703 341.513 195.703C337.271 195.703 333.486 194.684 330.158 192.645C326.83 190.605 324.252 187.699 322.424 183.926C320.595 180.129 319.67 175.77 319.646 170.848V168.316C319.646 163.277 320.549 158.848 322.353 155.027C324.181 151.184 326.748 148.242 330.053 146.203C333.381 144.141 337.178 143.109 341.443 143.109C345.709 143.109 349.494 144.141 352.799 146.203C356.127 148.242 358.693 151.184 360.498 155.027C362.326 158.848 363.24 163.266 363.24 168.281V170.566ZM352.553 168.246C352.553 162.879 351.592 158.801 349.67 156.012C347.748 153.223 345.006 151.828 341.443 151.828C337.904 151.828 335.174 153.211 333.252 155.977C331.33 158.719 330.357 162.75 330.334 168.07V170.566C330.334 175.793 331.295 179.848 333.217 182.73C335.138 185.613 337.904 187.055 341.513 187.055C345.053 187.055 347.771 185.672 349.67 182.906C351.568 180.117 352.529 176.062 352.553 170.742V168.246ZM383.245 143.812L396.394 180.938L409.472 143.812H423.323V195H412.741V181.008L413.796 156.855L399.98 195H392.738L378.956 156.891L380.011 181.008V195H369.464V143.812H383.245ZM461.891 172.816H441.641V186.527H465.407V195H431.094V143.812H465.337V152.355H441.641V164.555H461.891V172.816ZM523.066 152.355H507.386V195H496.839V152.355H481.371V143.812H523.066V152.355ZM568.735 170.566C568.735 175.605 567.845 180.023 566.063 183.82C564.282 187.617 561.728 190.547 558.399 192.609C555.095 194.672 551.298 195.703 547.009 195.703C542.767 195.703 538.981 194.684 535.653 192.645C532.325 190.605 529.747 187.699 527.919 183.926C526.091 180.129 525.165 175.77 525.142 170.848V168.316C525.142 163.277 526.044 158.848 527.849 155.027C529.677 151.184 532.243 148.242 535.548 146.203C538.876 144.141 542.673 143.109 546.938 143.109C551.204 143.109 554.989 144.141 558.294 146.203C561.622 148.242 564.188 151.184 565.993 155.027C567.821 158.848 568.735 163.266 568.735 168.281V170.566ZM558.048 168.246C558.048 162.879 557.087 158.801 555.165 156.012C553.243 153.223 550.501 151.828 546.938 151.828C543.399 151.828 540.669 153.211 538.747 155.977C536.825 158.719 535.853 162.75 535.829 168.07V170.566C535.829 175.793 536.79 179.848 538.712 182.73C540.634 185.613 543.399 187.055 547.009 187.055C550.548 187.055 553.267 185.672 555.165 182.906C557.063 180.117 558.024 176.062 558.048 170.742V168.246ZM607.48 174.469L601.996 180.375V195H591.449V143.812H601.996V167.016L606.637 160.652L619.68 143.812H632.652L614.476 166.559L633.18 195H620.629L607.48 174.469ZM676.634 170.566C676.634 175.605 675.743 180.023 673.962 183.82C672.181 187.617 669.626 190.547 666.298 192.609C662.993 194.672 659.197 195.703 654.908 195.703C650.665 195.703 646.88 194.684 643.552 192.645C640.224 190.605 637.646 187.699 635.818 183.926C633.99 180.129 633.064 175.77 633.04 170.848V168.316C633.04 163.277 633.943 158.848 635.747 155.027C637.575 151.184 640.142 148.242 643.447 146.203C646.775 144.141 650.572 143.109 654.837 143.109C659.103 143.109 662.888 144.141 666.193 146.203C669.521 148.242 672.087 151.184 673.892 155.027C675.72 158.848 676.634 163.266 676.634 168.281V170.566ZM665.947 168.246C665.947 162.879 664.986 158.801 663.064 156.012C661.142 153.223 658.4 151.828 654.837 151.828C651.298 151.828 648.568 153.211 646.646 155.977C644.724 158.719 643.751 162.75 643.728 168.07V170.566C643.728 175.793 644.689 179.848 646.611 182.73C648.533 185.613 651.298 187.055 654.908 187.055C658.447 187.055 661.165 185.672 663.064 182.906C664.962 180.117 665.923 176.062 665.947 170.742V168.246ZM696.639 143.812L709.788 180.938L722.866 143.812H736.718V195H726.135V181.008L727.19 156.855L713.374 195H706.132L692.35 156.891L693.405 181.008V195H682.858V143.812H696.639ZM758.27 143.812L771.418 180.938L784.496 143.812H798.348V195H787.766V181.008L788.82 156.855L775.004 195H767.762L753.981 156.891L755.035 181.008V195H744.488V143.812H758.27ZM844.861 143.812V177.527C844.861 183.129 843.103 187.559 839.588 190.816C836.095 194.074 831.314 195.703 825.244 195.703C819.267 195.703 814.521 194.121 811.005 190.957C807.49 187.793 805.697 183.445 805.627 177.914V143.812H816.173V177.598C816.173 180.949 816.97 183.398 818.564 184.945C820.181 186.469 822.408 187.23 825.244 187.23C831.173 187.23 834.185 184.113 834.279 177.879V143.812H844.861ZM893.694 195H883.148L862.616 161.32V195H852.069V143.812H862.616L883.183 177.562V143.812H893.694V195ZM912.68 195H902.133V143.812H912.68V195ZM958.525 152.355H942.846V195H932.299V152.355H916.83V143.812H958.525V152.355ZM981.343 166.875L991.995 143.812H1003.53L986.722 176.438V195H975.999V176.438L959.195 143.812H970.761L981.343 166.875Z" fill="white"/>
<path d="M179.438 180.234L175.54 181.134L183.368 180.978L179.438 180.234ZM186.328 143.812V139.812H183.014L182.398 143.069L186.328 143.812ZM196.84 143.812L200.745 144.679L201.824 139.812H196.84V143.812ZM185.484 195V199H188.694L189.389 195.866L185.484 195ZM174.867 195L170.981 195.946L171.724 199H174.867V195ZM166.535 160.758L170.422 159.812H162.649L166.535 160.758ZM158.203 195V199H161.347L162.09 195.946L158.203 195ZM147.586 195L143.681 195.866L144.376 199H147.586V195ZM136.23 143.812V139.812H131.246L132.325 144.679L136.23 143.812ZM146.742 143.812L150.672 143.064L150.052 139.812H146.742V143.812ZM153.668 180.164L149.739 180.913L157.564 181.068L153.668 180.164ZM162.105 143.812V139.812H158.928L158.209 142.908L162.105 143.812ZM171.035 143.812L174.933 142.913L174.217 139.812H171.035V143.812ZM183.368 180.978L190.258 144.556L182.398 143.069L175.507 179.491L183.368 180.978ZM186.328 147.812H196.84V139.812H186.328V147.812ZM192.935 142.946L181.579 194.134L189.389 195.866L200.745 144.679L192.935 142.946ZM185.484 191H174.867V199H185.484V191ZM178.754 194.054L170.422 159.812L162.649 161.704L170.981 195.946L178.754 194.054ZM162.649 159.812L154.317 194.054L162.09 195.946L170.422 161.704L162.649 159.812ZM158.203 191H147.586V199H158.203V191ZM151.491 194.134L140.136 142.946L132.325 144.679L143.681 195.866L151.491 194.134ZM136.23 147.812H146.742V139.812H136.23V147.812ZM142.813 144.561L149.739 180.913L157.597 179.415L150.672 143.064L142.813 144.561ZM157.564 181.068L166.002 144.717L158.209 142.908L149.772 179.26L157.564 181.068ZM162.105 147.812H171.035V139.812H162.105V147.812ZM167.138 144.712L175.54 181.134L183.335 179.335L174.933 142.913L167.138 144.712ZM231.927 172.816V176.816H235.927V172.816H231.927ZM211.677 172.816V168.816H207.677V172.816H211.677ZM211.677 186.527H207.677V190.527H211.677V186.527ZM235.443 186.527H239.443V182.527H235.443V186.527ZM235.443 195V199H239.443V195H235.443ZM201.13 195H197.13V199H201.13V195ZM201.13 143.812V139.812H197.13V143.812H201.13ZM235.372 143.812H239.372V139.812H235.372V143.812ZM235.372 152.355V156.355H239.372V152.355H235.372ZM211.677 152.355V148.355H207.677V152.355H211.677ZM211.677 164.555H207.677V168.555H211.677V164.555ZM231.927 164.555H235.927V160.555H231.927V164.555ZM231.927 168.816H211.677V176.816H231.927V168.816ZM207.677 172.816V186.527H215.677V172.816H207.677ZM211.677 190.527H235.443V182.527H211.677V190.527ZM231.443 186.527V195H239.443V186.527H231.443ZM235.443 191H201.13V199H235.443V191ZM205.13 195V143.812H197.13V195H205.13ZM201.13 147.812H235.372V139.812H201.13V147.812ZM231.372 143.812V152.355H239.372V143.812H231.372ZM235.372 148.355H211.677V156.355H235.372V148.355ZM207.677 152.355V164.555H215.677V152.355H207.677ZM211.677 168.555H231.927V160.555H211.677V168.555ZM227.927 164.555V172.816H235.927V164.555H227.927ZM250.737 186.527H246.737V190.527H250.737V186.527ZM273.132 186.527H277.132V182.527H273.132V186.527ZM273.132 195V199H277.132V195H273.132ZM240.19 195H236.19V199H240.19V195ZM240.19 143.812V139.812H236.19V143.812H240.19ZM250.737 143.812H254.737V139.812H250.737V143.812ZM250.737 190.527H273.132V182.527H250.737V190.527ZM269.132 186.527V195H277.132V186.527H269.132ZM273.132 191H240.19V199H273.132V191ZM244.19 195V143.812H236.19V195H244.19ZM240.19 147.812H250.737V139.812H240.19V147.812ZM246.737 143.812V186.527H254.737V143.812H246.737ZM315.707 177.949L319.697 178.238L320.007 173.949H315.707V177.949ZM309.59 190.957L306.982 187.924L306.973 187.932L309.59 190.957ZM279.602 189.094L276.549 191.678L276.556 191.687L276.564 191.696L279.602 189.094ZM283.996 146.133L286.105 149.532L286.112 149.528L283.996 146.133ZM315.778 161.18V165.18H320.19L319.758 160.788L315.778 161.18ZM305.231 161.18L301.243 161.491L301.531 165.18H305.231V161.18ZM302.453 154.008L299.691 156.9L299.713 156.921L299.735 156.942L302.453 154.008ZM287.336 155.555L284.051 153.273L284.046 153.279L287.336 155.555ZM284.664 167.262L280.665 167.226L280.664 167.244V167.262H284.664ZM287.16 183.258L283.809 185.441L283.816 185.452L283.823 185.462L287.16 183.258ZM302.383 184.875L305.102 187.809L305.103 187.808L302.383 184.875ZM305.16 177.949V173.949H301.45L301.172 177.649L305.16 177.949ZM311.718 177.661C311.385 182.266 309.741 185.552 306.982 187.924L312.198 193.99C316.799 190.034 319.233 184.648 319.697 178.238L311.718 177.661ZM306.973 187.932C304.206 190.326 300.384 191.703 295.106 191.703V199.703C301.827 199.703 307.661 197.916 312.208 193.982L306.973 187.932ZM295.106 191.703C289.54 191.703 285.549 189.888 282.64 186.492L276.564 191.696C281.202 197.112 287.546 199.703 295.106 199.703V191.703ZM282.655 186.509C279.692 183.01 277.977 177.961 277.977 170.883H269.977C269.977 179.226 272.011 186.318 276.549 191.678L282.655 186.509ZM277.977 170.883V167.754H269.977V170.883H277.977ZM277.977 167.754C277.977 163.302 278.76 159.558 280.209 156.425L272.948 153.067C270.928 157.434 269.977 162.362 269.977 167.754H277.977ZM280.209 156.425C281.647 153.316 283.621 151.073 286.105 149.532L281.888 142.734C277.95 145.177 274.979 148.676 272.948 153.067L280.209 156.425ZM286.112 149.528C288.638 147.953 291.637 147.109 295.246 147.109V139.109C290.325 139.109 285.824 140.281 281.881 142.738L286.112 149.528ZM295.246 147.109C300.415 147.109 304.161 148.477 306.883 150.863L312.157 144.848C307.66 140.906 301.89 139.109 295.246 139.109V147.109ZM306.883 150.863C309.582 153.23 311.313 156.652 311.797 161.571L319.758 160.788C319.117 154.27 316.676 148.809 312.157 144.848L306.883 150.863ZM315.778 157.18H305.231V165.18H315.778V157.18ZM309.219 160.869C308.923 157.072 307.809 153.517 305.172 151.074L299.735 156.942C300.285 157.452 301.023 158.678 301.243 161.491L309.219 160.869ZM305.216 151.115C302.607 148.623 299.014 147.758 295.246 147.758V155.758C297.947 155.758 299.159 156.392 299.691 156.9L305.216 151.115ZM295.246 147.758C290.634 147.758 286.67 149.501 284.051 153.273L290.622 157.836C291.518 156.546 292.828 155.758 295.246 155.758V147.758ZM284.046 153.279C281.63 156.774 280.714 161.651 280.665 167.226L288.664 167.297C288.709 162.279 289.574 159.351 290.626 157.83L284.046 153.279ZM280.664 167.262V171.129H288.664V167.262H280.664ZM280.664 171.129C280.664 176.89 281.499 181.895 283.809 185.441L290.512 181.075C289.494 179.511 288.664 176.43 288.664 171.129H280.664ZM283.823 185.462C286.392 189.352 290.431 191.09 295.106 191.09V183.09C292.562 183.09 291.304 182.273 290.498 181.053L283.823 185.462ZM295.106 191.09C298.88 191.09 302.473 190.245 305.102 187.809L299.665 181.941C299.106 182.458 297.848 183.09 295.106 183.09V191.09ZM305.103 187.808C307.72 185.381 308.871 181.953 309.149 178.249L301.172 177.649C300.981 180.18 300.281 181.369 299.663 181.942L305.103 187.808ZM305.16 181.949H315.707V173.949H305.16V181.949ZM352.904 192.609L350.797 189.209L350.786 189.216L352.904 192.609ZM322.424 183.926L318.82 185.661L318.824 185.67L322.424 183.926ZM319.646 170.848H315.646V170.857L315.646 170.867L319.646 170.848ZM322.353 155.027L318.741 153.309L318.737 153.319L322.353 155.027ZM330.053 146.203L332.153 149.607L332.16 149.603L330.053 146.203ZM352.799 146.203L350.681 149.596L350.695 149.605L350.709 149.614L352.799 146.203ZM360.498 155.027L356.877 156.727L356.883 156.741L356.89 156.754L360.498 155.027ZM333.252 155.977L336.527 158.272L336.532 158.266L336.536 158.259L333.252 155.977ZM330.334 168.07L326.334 168.053L326.334 168.062V168.07H330.334ZM349.67 182.906L352.967 185.17L352.972 185.164L352.976 185.157L349.67 182.906ZM352.553 170.742L356.552 170.76L356.553 170.751V170.742H352.553ZM359.24 170.566C359.24 175.135 358.434 178.952 356.947 182.121L364.189 185.519C366.265 181.094 367.24 176.076 367.24 170.566H359.24ZM356.947 182.121C355.47 185.269 353.419 187.585 350.797 189.209L355.011 196.009C359.046 193.509 362.103 189.966 364.189 185.519L356.947 182.121ZM350.786 189.216C348.18 190.843 345.132 191.703 341.513 191.703V199.703C346.473 199.703 351.019 198.501 355.022 196.003L350.786 189.216ZM341.513 191.703C337.942 191.703 334.893 190.854 332.248 189.234L328.068 196.055C332.08 198.513 336.6 199.703 341.513 199.703V191.703ZM332.248 189.234C329.621 187.624 327.544 185.32 326.023 182.182L318.824 185.67C320.96 190.078 324.039 193.587 328.068 196.055L332.248 189.234ZM326.028 182.191C324.497 179.012 323.667 175.255 323.646 170.829L315.646 170.867C315.672 176.284 316.694 181.246 318.82 185.661L326.028 182.191ZM323.646 170.848V168.316H315.646V170.848H323.646ZM323.646 168.316C323.646 163.756 324.462 159.929 325.97 156.736L318.737 153.319C316.635 157.766 315.646 162.799 315.646 168.316H323.646ZM325.966 156.745C327.496 153.528 329.567 151.203 332.153 149.607L327.952 142.799C323.929 145.281 320.867 148.839 318.741 153.309L325.966 156.745ZM332.16 149.603C334.799 147.968 337.853 147.109 341.443 147.109V139.109C336.502 139.109 331.963 140.314 327.945 142.803L332.16 149.603ZM341.443 147.109C345.034 147.109 348.071 147.968 350.681 149.596L354.916 142.81C350.917 140.314 346.384 139.109 341.443 139.109V147.109ZM350.709 149.614C353.312 151.209 355.374 153.526 356.877 156.727L364.119 153.327C362.012 148.841 358.942 145.276 354.888 142.792L350.709 149.614ZM356.89 156.754C358.417 159.945 359.24 163.754 359.24 168.281H367.24C367.24 162.777 366.235 157.751 364.106 153.301L356.89 156.754ZM359.24 168.281V170.566H367.24V168.281H359.24ZM356.553 168.246C356.553 162.505 355.543 157.485 352.963 153.742L346.376 158.281C347.64 160.116 348.553 163.253 348.553 168.246H356.553ZM352.963 153.742C350.25 149.805 346.24 147.828 341.443 147.828V155.828C343.771 155.828 345.245 156.641 346.376 158.281L352.963 153.742ZM341.443 147.828C336.673 147.828 332.68 149.789 329.967 153.694L336.536 158.259C337.667 156.633 339.135 155.828 341.443 155.828V147.828ZM329.976 153.681C327.384 157.379 326.359 162.359 326.334 168.053L334.334 168.088C334.356 163.141 335.275 160.059 336.527 158.272L329.976 153.681ZM326.334 168.07V170.566H334.334V168.07H326.334ZM326.334 170.566C326.334 176.207 327.358 181.154 329.888 184.949L336.545 180.512C335.231 178.541 334.334 175.379 334.334 170.566H326.334ZM329.888 184.949C332.588 188.999 336.634 191.055 341.513 191.055V183.055C339.175 183.055 337.688 182.227 336.545 180.512L329.888 184.949ZM341.513 191.055C346.285 191.055 350.276 189.092 352.967 185.17L346.372 180.643C345.267 182.252 343.82 183.055 341.513 183.055V191.055ZM352.976 185.157C355.513 181.43 356.527 176.454 356.552 170.76L348.553 170.725C348.531 175.671 347.623 178.805 346.363 180.655L352.976 185.157ZM356.553 170.742V168.246H348.553V170.742H356.553ZM383.245 143.812L387.016 142.477L386.072 139.812H383.245V143.812ZM396.394 180.938L392.623 182.273L396.404 192.948L400.167 182.267L396.394 180.938ZM409.472 143.812V139.812H406.64L405.699 142.483L409.472 143.812ZM423.323 143.812H427.323V139.812H423.323V143.812ZM423.323 195V199H427.323V195H423.323ZM412.741 195H408.741V199H412.741V195ZM412.741 181.008L408.745 180.833L408.741 180.921V181.008H412.741ZM413.796 156.855L417.792 157.03L410.035 155.493L413.796 156.855ZM399.98 195V199H402.785L403.741 196.362L399.98 195ZM392.737 195L388.976 196.36L389.93 199H392.737V195ZM378.956 156.891L382.718 155.53L374.96 157.065L378.956 156.891ZM380.011 181.008H384.011V180.92L384.007 180.833L380.011 181.008ZM380.011 195V199H384.011V195H380.011ZM369.464 195H365.464V199H369.464V195ZM369.464 143.812V139.812H365.464V143.812H369.464ZM379.475 145.148L392.623 182.273L400.164 179.602L387.016 142.477L379.475 145.148ZM400.167 182.267L413.245 145.142L405.699 142.483L392.621 179.608L400.167 182.267ZM409.472 147.812H423.323V139.812H409.472V147.812ZM419.323 143.812V195H427.323V143.812H419.323ZM423.323 191H412.741V199H423.323V191ZM416.741 195V181.008H408.741V195H416.741ZM416.738 181.182L417.792 157.03L409.8 156.681L408.745 180.833L416.738 181.182ZM410.035 155.493L396.219 193.638L403.741 196.362L417.557 158.218L410.035 155.493ZM399.98 191H392.737V199H399.98V191ZM396.499 193.64L382.718 155.53L375.195 158.251L388.976 196.36L396.499 193.64ZM374.96 157.065L376.015 181.183L384.007 180.833L382.952 156.716L374.96 157.065ZM376.011 181.008V195H384.011V181.008H376.011ZM380.011 191H369.464V199H380.011V191ZM373.464 195V143.812H365.464V195H373.464ZM369.464 147.812H383.245V139.812H369.464V147.812ZM461.891 172.816V176.816H465.891V172.816H461.891ZM441.641 172.816V168.816H437.641V172.816H441.641ZM441.641 186.527H437.641V190.527H441.641V186.527ZM465.407 186.527H469.407V182.527H465.407V186.527ZM465.407 195V199H469.407V195H465.407ZM431.094 195H427.094V199H431.094V195ZM431.094 143.812V139.812H427.094V143.812H431.094ZM465.337 143.812H469.337V139.812H465.337V143.812ZM465.337 152.355V156.355H469.337V152.355H465.337ZM441.641 152.355V148.355H437.641V152.355H441.641ZM441.641 164.555H437.641V168.555H441.641V164.555ZM461.891 164.555H465.891V160.555H461.891V164.555ZM461.891 168.816H441.641V176.816H461.891V168.816ZM437.641 172.816V186.527H445.641V172.816H437.641ZM441.641 190.527H465.407V182.527H441.641V190.527ZM461.407 186.527V195H469.407V186.527H461.407ZM465.407 191H431.094V199H465.407V191ZM435.094 195V143.812H427.094V195H435.094ZM431.094 147.812H465.337V139.812H431.094V147.812ZM461.337 143.812V152.355H469.337V143.812H461.337ZM465.337 148.355H441.641V156.355H465.337V148.355ZM437.641 152.355V164.555H445.641V152.355H437.641ZM441.641 168.555H461.891V160.555H441.641V168.555ZM457.891 164.555V172.816H465.891V164.555H457.891ZM523.066 152.355V156.355H527.066V152.355H523.066ZM507.386 152.355V148.355H503.386V152.355H507.386ZM507.386 195V199H511.386V195H507.386ZM496.839 195H492.839V199H496.839V195ZM496.839 152.355H500.839V148.355H496.839V152.355ZM481.371 152.355H477.371V156.355H481.371V152.355ZM481.371 143.812V139.812H477.371V143.812H481.371ZM523.066 143.812H527.066V139.812H523.066V143.812ZM523.066 148.355H507.386V156.355H523.066V148.355ZM503.386 152.355V195H511.386V152.355H503.386ZM507.386 191H496.839V199H507.386V191ZM500.839 195V152.355H492.839V195H500.839ZM496.839 148.355H481.371V156.355H496.839V148.355ZM485.371 152.355V143.812H477.371V152.355H485.371ZM481.371 147.812H523.066V139.812H481.371V147.812ZM519.066 143.812V152.355H527.066V143.812H519.066ZM558.399 192.609L556.292 189.209L556.282 189.216L558.399 192.609ZM527.919 183.926L524.315 185.661L524.319 185.67L527.919 183.926ZM525.142 170.848H521.142V170.857L521.142 170.867L525.142 170.848ZM527.849 155.027L524.236 153.309L524.232 153.319L527.849 155.027ZM535.548 146.203L537.648 149.607L537.655 149.603L535.548 146.203ZM558.294 146.203L556.176 149.596L556.19 149.605L556.204 149.614L558.294 146.203ZM565.993 155.027L562.372 156.727L562.379 156.741L562.385 156.754L565.993 155.027ZM538.747 155.977L542.023 158.272L542.027 158.266L542.032 158.259L538.747 155.977ZM535.829 168.07L531.829 168.053L531.829 168.062V168.07H535.829ZM555.165 182.906L558.463 185.17L558.467 185.164L558.472 185.157L555.165 182.906ZM558.048 170.742L562.048 170.76L562.048 170.751V170.742H558.048ZM564.735 170.566C564.735 175.135 563.929 178.952 562.442 182.121L569.685 185.519C571.761 181.094 572.735 176.076 572.735 170.566H564.735ZM562.442 182.121C560.966 185.269 558.914 187.585 556.292 189.209L560.506 196.009C564.541 193.509 567.599 189.966 569.685 185.519L562.442 182.121ZM556.282 189.216C553.675 190.843 550.627 191.703 547.009 191.703V199.703C551.968 199.703 556.514 198.501 560.517 196.003L556.282 189.216ZM547.009 191.703C543.438 191.703 540.388 190.854 537.743 189.234L533.564 196.055C537.575 198.513 542.095 199.703 547.009 199.703V191.703ZM537.743 189.234C535.116 187.624 533.039 185.32 531.519 182.182L524.319 185.67C526.455 190.078 529.534 193.587 533.564 196.055L537.743 189.234ZM531.523 182.191C529.993 179.012 529.163 175.255 529.142 170.829L521.142 170.867C521.167 176.284 522.189 181.246 524.315 185.661L531.523 182.191ZM529.142 170.848V168.316H521.142V170.848H529.142ZM529.142 168.316C529.142 163.756 529.957 159.929 531.465 156.736L524.232 153.319C522.131 157.766 521.142 162.799 521.142 168.316H529.142ZM531.461 156.745C532.991 153.528 535.062 151.203 537.648 149.607L533.447 142.799C529.424 145.281 526.362 148.839 524.236 153.309L531.461 156.745ZM537.655 149.603C540.294 147.968 543.348 147.109 546.938 147.109V139.109C541.997 139.109 537.458 140.314 533.441 142.803L537.655 149.603ZM546.938 147.109C550.529 147.109 553.566 147.968 556.176 149.596L560.412 142.81C556.412 140.314 551.879 139.109 546.938 139.109V147.109ZM556.204 149.614C558.807 151.209 560.869 153.526 562.372 156.727L569.614 153.327C567.507 148.841 564.437 145.276 560.384 142.792L556.204 149.614ZM562.385 156.754C563.912 159.945 564.735 163.754 564.735 168.281H572.735C572.735 162.777 571.731 157.751 569.601 153.301L562.385 156.754ZM564.735 168.281V170.566H572.735V168.281H564.735ZM562.048 168.246C562.048 162.505 561.038 157.485 558.459 153.742L551.871 158.281C553.136 160.116 554.048 163.253 554.048 168.246H562.048ZM558.459 153.742C555.746 149.805 551.736 147.828 546.938 147.828V155.828C549.266 155.828 550.741 156.641 551.871 158.281L558.459 153.742ZM546.938 147.828C542.168 147.828 538.176 149.789 535.462 153.694L542.032 158.259C543.162 156.633 544.63 155.828 546.938 155.828V147.828ZM535.471 153.681C532.88 157.379 531.854 162.359 531.829 168.053L539.829 168.088C539.851 163.141 540.771 160.059 542.023 158.272L535.471 153.681ZM531.829 168.07V170.566H539.829V168.07H531.829ZM531.829 170.566C531.829 176.207 532.854 181.154 535.384 184.949L542.04 180.512C540.726 178.541 539.829 175.379 539.829 170.566H531.829ZM535.384 184.949C538.084 188.999 542.129 191.055 547.009 191.055V183.055C544.67 183.055 543.184 182.227 542.04 180.512L535.384 184.949ZM547.009 191.055C551.78 191.055 555.771 189.092 558.463 185.17L551.867 180.643C550.762 182.252 549.316 183.055 547.009 183.055V191.055ZM558.472 185.157C561.009 181.43 562.023 176.454 562.048 170.76L554.048 170.725C554.026 175.671 553.118 178.805 551.858 180.655L558.472 185.157ZM562.048 170.742V168.246H554.048V170.742H562.048ZM607.48 174.469L610.849 172.312L608.063 167.962L604.549 171.747L607.48 174.469ZM601.996 180.375L599.065 177.653L597.996 178.804V180.375H601.996ZM601.996 195V199H605.996V195H601.996ZM591.449 195H587.449V199H591.449V195ZM591.449 143.812V139.812H587.449V143.812H591.449ZM601.996 143.812H605.996V139.812H601.996V143.812ZM601.996 167.016H597.996V179.289L605.228 169.373L601.996 167.016ZM606.637 160.652L603.474 158.203L603.439 158.249L603.405 158.295L606.637 160.652ZM619.68 143.812V139.812H617.718L616.517 141.363L619.68 143.812ZM632.652 143.812L635.777 146.31L640.969 139.812H632.652V143.812ZM614.476 166.559L611.352 164.062L609.539 166.33L611.134 168.756L614.476 166.559ZM633.18 195V199H640.597L636.522 192.802L633.18 195ZM620.629 195L617.26 197.157L618.44 199H620.629V195ZM604.549 171.747L599.065 177.653L604.927 183.097L610.411 177.191L604.549 171.747ZM597.996 180.375V195H605.996V180.375H597.996ZM601.996 191H591.449V199H601.996V191ZM595.449 195V143.812H587.449V195H595.449ZM591.449 147.812H601.996V139.812H591.449V147.812ZM597.996 143.812V167.016H605.996V143.812H597.996ZM605.228 169.373L609.868 163.009L603.405 158.295L598.764 164.659L605.228 169.373ZM609.799 163.102L622.842 146.262L616.517 141.363L603.474 158.203L609.799 163.102ZM619.68 147.812H632.652V139.812H619.68V147.812ZM629.527 141.315L611.352 164.062L617.601 169.056L635.777 146.31L629.527 141.315ZM611.134 168.756L629.837 197.198L636.522 192.802L617.819 164.361L611.134 168.756ZM633.18 191H620.629V199H633.18V191ZM623.997 192.843L610.849 172.312L604.112 176.626L617.26 197.157L623.997 192.843ZM666.298 192.609L664.191 189.209L664.18 189.216L666.298 192.609ZM635.818 183.926L632.214 185.661L632.218 185.67L635.818 183.926ZM633.04 170.848H629.04V170.857L629.04 170.867L633.04 170.848ZM635.747 155.027L632.135 153.309L632.131 153.319L635.747 155.027ZM643.447 146.203L645.547 149.607L645.554 149.603L643.447 146.203ZM666.193 146.203L664.075 149.596L664.089 149.605L664.103 149.614L666.193 146.203ZM673.892 155.027L670.271 156.727L670.277 156.741L670.284 156.754L673.892 155.027ZM646.646 155.977L649.921 158.272L649.926 158.266L649.931 158.259L646.646 155.977ZM643.728 168.07L639.728 168.053L639.728 168.062V168.07H643.728ZM663.064 182.906L666.362 185.17L666.366 185.164L666.37 185.157L663.064 182.906ZM665.947 170.742L669.947 170.76V170.751V170.742H665.947ZM672.634 170.566C672.634 175.135 671.828 178.952 670.341 182.121L677.583 185.519C679.659 181.094 680.634 176.076 680.634 170.566H672.634ZM670.341 182.121C668.864 185.269 666.813 187.585 664.191 189.209L668.405 196.009C672.44 193.509 675.497 189.966 677.583 185.519L670.341 182.121ZM664.18 189.216C661.574 190.843 658.526 191.703 654.907 191.703V199.703C659.867 199.703 664.413 198.501 668.416 196.003L664.18 189.216ZM654.907 191.703C651.336 191.703 648.287 190.854 645.642 189.234L641.462 196.055C645.474 198.513 649.994 199.703 654.907 199.703V191.703ZM645.642 189.234C643.015 187.624 640.938 185.32 639.417 182.182L632.218 185.67C634.354 190.078 637.433 193.587 641.462 196.055L645.642 189.234ZM639.422 182.191C637.891 179.012 637.061 175.255 637.04 170.829L629.04 170.867C629.066 176.284 630.088 181.246 632.214 185.661L639.422 182.191ZM637.04 170.848V168.316H629.04V170.848H637.04ZM637.04 168.316C637.04 163.756 637.856 159.929 639.364 156.736L632.131 153.319C630.03 157.766 629.04 162.799 629.04 168.316H637.04ZM639.36 156.745C640.89 153.528 642.961 151.203 645.547 149.607L641.346 142.799C637.323 145.281 634.261 148.839 632.135 153.309L639.36 156.745ZM645.554 149.603C648.193 147.968 651.247 147.109 654.837 147.109V139.109C649.896 139.109 645.357 140.314 641.34 142.803L645.554 149.603ZM654.837 147.109C658.428 147.109 661.465 147.968 664.075 149.596L668.31 142.81C664.311 140.314 659.778 139.109 654.837 139.109V147.109ZM664.103 149.614C666.706 151.209 668.768 153.526 670.271 156.727L677.513 153.327C675.406 148.841 672.336 145.276 668.282 142.792L664.103 149.614ZM670.284 156.754C671.811 159.945 672.634 163.754 672.634 168.281H680.634C680.634 162.777 679.629 157.751 677.5 153.301L670.284 156.754ZM672.634 168.281V170.566H680.634V168.281H672.634ZM669.947 168.246C669.947 162.505 668.937 157.485 666.357 153.742L659.77 158.281C661.035 160.116 661.947 163.253 661.947 168.246H669.947ZM666.357 153.742C663.644 149.805 659.634 147.828 654.837 147.828V155.828C657.165 155.828 658.639 156.641 659.77 158.281L666.357 153.742ZM654.837 147.828C650.067 147.828 646.074 149.789 643.361 153.694L649.931 158.259C651.061 156.633 652.529 155.828 654.837 155.828V147.828ZM643.37 153.681C640.778 157.379 639.753 162.359 639.728 168.053L647.728 168.088C647.75 163.141 648.669 160.059 649.921 158.272L643.37 153.681ZM639.728 168.07V170.566H647.728V168.07H639.728ZM639.728 170.566C639.728 176.207 640.752 181.154 643.282 184.949L649.939 180.512C648.625 178.541 647.728 175.379 647.728 170.566H639.728ZM643.282 184.949C645.983 188.999 650.028 191.055 654.907 191.055V183.055C652.569 183.055 651.083 182.227 649.939 180.512L643.282 184.949ZM654.907 191.055C659.679 191.055 663.67 189.092 666.362 185.17L659.766 180.643C658.661 182.252 657.214 183.055 654.907 183.055V191.055ZM666.37 185.157C668.907 181.43 669.921 176.454 669.947 170.76L661.947 170.725C661.925 175.671 661.017 178.805 659.757 180.655L666.37 185.157ZM669.947 170.742V168.246H661.947V170.742H669.947ZM696.639 143.812L700.41 142.477L699.466 139.812H696.639V143.812ZM709.788 180.938L706.017 182.273L709.798 192.948L713.561 182.267L709.788 180.938ZM722.866 143.812V139.812H720.034L719.093 142.483L722.866 143.812ZM736.718 143.812H740.718V139.812H736.718V143.812ZM736.718 195V199H740.718V195H736.718ZM726.135 195H722.135V199H726.135V195ZM726.135 181.008L722.139 180.833L722.135 180.921V181.008H726.135ZM727.19 156.855L731.186 157.03L723.429 155.493L727.19 156.855ZM713.374 195V199H716.179L717.135 196.362L713.374 195ZM706.132 195L702.37 196.36L703.325 199H706.132V195ZM692.35 156.891L696.112 155.53L688.354 157.065L692.35 156.891ZM693.405 181.008H697.405V180.92L697.401 180.833L693.405 181.008ZM693.405 195V199H697.405V195H693.405ZM682.858 195H678.858V199H682.858V195ZM682.858 143.812V139.812H678.858V143.812H682.858ZM692.869 145.148L706.017 182.273L713.558 179.602L700.41 142.477L692.869 145.148ZM713.561 182.267L726.639 145.142L719.093 142.483L706.015 179.608L713.561 182.267ZM722.866 147.812H736.718V139.812H722.866V147.812ZM732.718 143.812V195H740.718V143.812H732.718ZM736.718 191H726.135V199H736.718V191ZM730.135 195V181.008H722.135V195H730.135ZM730.132 181.182L731.186 157.03L723.194 156.681L722.139 180.833L730.132 181.182ZM723.429 155.493L709.613 193.638L717.135 196.362L730.951 158.218L723.429 155.493ZM713.374 191H706.132V199H713.374V191ZM709.893 193.64L696.112 155.53L688.589 158.251L702.37 196.36L709.893 193.64ZM688.354 157.065L689.409 181.183L697.401 180.833L696.346 156.716L688.354 157.065ZM689.405 181.008V195H697.405V181.008H689.405ZM693.405 191H682.858V199H693.405V191ZM686.858 195V143.812H678.858V195H686.858ZM682.858 147.812H696.639V139.812H682.858V147.812ZM758.27 143.812L762.04 142.477L761.096 139.812H758.27V143.812ZM771.418 180.938L767.648 182.273L771.428 192.948L775.191 182.267L771.418 180.938ZM784.496 143.812V139.812H781.664L780.724 142.483L784.496 143.812ZM798.348 143.812H802.348V139.812H798.348V143.812ZM798.348 195V199H802.348V195H798.348ZM787.766 195H783.766V199H787.766V195ZM787.766 181.008L783.77 180.833L783.766 180.921V181.008H787.766ZM788.82 156.855L792.817 157.03L785.06 155.493L788.82 156.855ZM775.004 195V199H777.81L778.765 196.362L775.004 195ZM767.762 195L764 196.36L764.955 199H767.762V195ZM753.981 156.891L757.742 155.53L749.984 157.065L753.981 156.891ZM755.035 181.008H759.035V180.92L759.031 180.833L755.035 181.008ZM755.035 195V199H759.035V195H755.035ZM744.488 195H740.488V199H744.488V195ZM744.488 143.812V139.812H740.488V143.812H744.488ZM754.499 145.148L767.648 182.273L775.189 179.602L762.04 142.477L754.499 145.148ZM775.191 182.267L788.269 145.142L780.724 142.483L767.645 179.608L775.191 182.267ZM784.496 147.812H798.348V139.812H784.496V147.812ZM794.348 143.812V195H802.348V143.812H794.348ZM798.348 191H787.766V199H798.348V191ZM791.766 195V181.008H783.766V195H791.766ZM791.762 181.182L792.817 157.03L784.824 156.681L783.77 180.833L791.762 181.182ZM785.06 155.493L771.243 193.638L778.765 196.362L792.581 158.218L785.06 155.493ZM775.004 191H767.762V199H775.004V191ZM771.523 193.64L757.742 155.53L750.219 158.251L764 196.36L771.523 193.64ZM749.984 157.065L751.039 181.183L759.031 180.833L757.977 156.716L749.984 157.065ZM751.035 181.008V195H759.035V181.008H751.035ZM755.035 191H744.488V199H755.035V191ZM748.488 195V143.812H740.488V195H748.488ZM744.488 147.812H758.27V139.812H744.488V147.812ZM844.861 143.812H848.861V139.812H844.861V143.812ZM839.588 190.816L836.869 187.882L836.859 187.892L839.588 190.816ZM805.627 177.914H801.627V177.939L801.627 177.965L805.627 177.914ZM805.627 143.812V139.812H801.627V143.812H805.627ZM816.173 143.812H820.173V139.812H816.173V143.812ZM818.564 184.945L815.778 187.816L815.8 187.836L815.821 187.857L818.564 184.945ZM834.279 177.879L838.279 177.939L838.279 177.909V177.879H834.279ZM834.279 143.812V139.812H830.279V143.812H834.279ZM840.861 143.812V177.527H848.861V143.812H840.861ZM840.861 177.527C840.861 182.22 839.428 185.511 836.869 187.882L842.306 193.75C846.778 189.607 848.861 184.037 848.861 177.527H840.861ZM836.859 187.892C834.293 190.286 830.587 191.703 825.244 191.703V199.703C832.042 199.703 837.898 197.863 842.316 193.741L836.859 187.892ZM825.244 191.703C819.986 191.703 816.284 190.326 813.681 187.984L808.33 193.93C812.758 197.916 818.549 199.703 825.244 199.703V191.703ZM813.681 187.984C811.138 185.694 809.685 182.485 809.626 177.863L801.627 177.965C801.709 184.405 803.842 189.891 808.33 193.93L813.681 187.984ZM809.627 177.914V143.812H801.627V177.914H809.627ZM805.627 147.812H816.173V139.812H805.627V147.812ZM812.173 143.812V177.598H820.173V143.812H812.173ZM812.173 177.598C812.173 181.486 813.089 185.206 815.778 187.816L821.35 182.075C820.852 181.591 820.173 180.413 820.173 177.598H812.173ZM815.821 187.857C818.369 190.257 821.681 191.23 825.244 191.23V183.23C823.134 183.23 821.993 182.68 821.307 182.034L815.821 187.857ZM825.244 191.23C828.883 191.23 832.323 190.264 834.826 187.672C837.296 185.116 838.223 181.629 838.279 177.939L830.279 177.819C830.241 180.363 829.616 181.552 829.073 182.113C828.565 182.639 827.535 183.23 825.244 183.23V191.23ZM838.279 177.879V143.812H830.279V177.879H838.279ZM834.279 147.812H844.861V139.812H834.279V147.812ZM893.694 195V199H897.694V195H893.694ZM883.148 195L879.732 197.082L880.901 199H883.148V195ZM862.616 161.32L866.032 159.238L858.616 147.074V161.32H862.616ZM862.616 195V199H866.616V195H862.616ZM852.069 195H848.069V199H852.069V195ZM852.069 143.812V139.812H848.069V143.812H852.069ZM862.616 143.812L866.032 141.731L864.863 139.812H862.616V143.812ZM883.183 177.562L879.767 179.644L887.183 191.813V177.562H883.183ZM883.183 143.812V139.812H879.183V143.812H883.183ZM893.694 143.812H897.694V139.812H893.694V143.812ZM893.694 191H883.148V199H893.694V191ZM886.563 192.918L866.032 159.238L859.201 163.402L879.732 197.082L886.563 192.918ZM858.616 161.32V195H866.616V161.32H858.616ZM862.616 191H852.069V199H862.616V191ZM856.069 195V143.812H848.069V195H856.069ZM852.069 147.812H862.616V139.812H852.069V147.812ZM859.201 145.894L879.767 179.644L886.598 175.481L866.032 141.731L859.201 145.894ZM887.183 177.562V143.812H879.183V177.562H887.183ZM883.183 147.812H893.694V139.812H883.183V147.812ZM889.694 143.812V195H897.694V143.812H889.694ZM912.68 195V199H916.68V195H912.68ZM902.133 195H898.133V199H902.133V195ZM902.133 143.812V139.812H898.133V143.812H902.133ZM912.68 143.812H916.68V139.812H912.68V143.812ZM912.68 191H902.133V199H912.68V191ZM906.133 195V143.812H898.133V195H906.133ZM902.133 147.812H912.68V139.812H902.133V147.812ZM908.68 143.812V195H916.68V143.812H908.68ZM958.525 152.355V156.355H962.525V152.355H958.525ZM942.846 152.355V148.355H938.846V152.355H942.846ZM942.846 195V199H946.846V195H942.846ZM932.299 195H928.299V199H932.299V195ZM932.299 152.355H936.299V148.355H932.299V152.355ZM916.83 152.355H912.83V156.355H916.83V152.355ZM916.83 143.812V139.812H912.83V143.812H916.83ZM958.525 143.812H962.525V139.812H958.525V143.812ZM958.525 148.355H942.846V156.355H958.525V148.355ZM938.846 152.355V195H946.846V152.355H938.846ZM942.846 191H932.299V199H942.846V191ZM936.299 195V152.355H928.299V195H936.299ZM932.299 148.355H916.83V156.355H932.299V148.355ZM920.83 152.355V143.812H912.83V152.355H920.83ZM916.83 147.812H958.525V139.812H916.83V147.812ZM954.525 143.812V152.355H962.525V143.812H954.525ZM981.343 166.875L977.708 168.543L981.331 176.44L984.974 168.552L981.343 166.875ZM991.995 143.812V139.812H989.437L988.364 142.135L991.995 143.812ZM1003.53 143.812L1007.08 145.644L1010.09 139.812H1003.53V143.812ZM986.722 176.438L983.166 174.606L982.722 175.468V176.438H986.722ZM986.722 195V199H990.722V195H986.722ZM975.999 195H971.999V199H975.999V195ZM975.999 176.438H979.999V175.468L979.555 174.606L975.999 176.438ZM959.195 143.812V139.812H952.635L955.639 145.644L959.195 143.812ZM970.761 143.812L974.397 142.144L973.327 139.812H970.761V143.812ZM984.974 168.552L995.627 145.49L988.364 142.135L977.712 165.198L984.974 168.552ZM991.995 147.812H1003.53V139.812H991.995V147.812ZM999.971 141.981L983.166 174.606L990.278 178.269L1007.08 145.644L999.971 141.981ZM982.722 176.438V195H990.722V176.438H982.722ZM986.722 191H975.999V199H986.722V191ZM979.999 195V176.438H971.999V195H979.999ZM979.555 174.606L962.751 141.981L955.639 145.644L972.443 178.269L979.555 174.606ZM959.195 147.812H970.761V139.812H959.195V147.812ZM967.126 145.481L977.708 168.543L984.979 165.207L974.397 142.144L967.126 145.481Z" fill="#2C6241"/>
</g>
<defs>
<filter id="filter0_d" x="131.246" y="131.109" width="884.841" height="68.5938" filterUnits="userSpaceOnUse" color-interpolation-filters="sRGB">
<feFlood flood-opacity="0" result="BackgroundImageFix"/>
<feColorMatrix in="SourceAlpha" type="matrix" values="0 0 0 0 0 0 0 0 0 0 0 0 0 0 0 0 0 0 127 0" result="hardAlpha"/>
<feOffset dx="3" dy="-5"/>
<feGaussianBlur stdDeviation="1.5"/>
<feComposite in2="hardAlpha" operator="out"/>
<feColorMatrix type="matrix" values="0 0 0 0 0.572135 0 0 0 0 0.8125 0 0 0 0 0.656263 0 0 0 1 0"/>
<feBlend mode="normal" in2="BackgroundImageFix" result="effect1_dropShadow"/>
<feBlend mode="normal" in="SourceGraphic" in2="effect1_dropShadow" result="shape"/>
</filter>
<clipPath id="clip0">
<rect width="610" height="360" fill="white" transform="translate(566 5)"/>
</clipPath>
</defs>
</svg>
